# xmcd
#
# Track frame offsets: 
#        150
#        31735
#        60060
#        82232
#        103615
#        133405
#        147827
#        164415
#        233905
#
# Disc length: 3458 seconds
#
# Revision: 0
# Processed by: cddbd v1.4PL0 Copyright (c) Steve Scherf et al.
# Submitted via: ExactAudioCopy v0.90b4
#
DISCID=740d8009
DTITLE=Bluespumpm - Live in Vienna
DYEAR=1992
DGENRE=Blues
TTITLE0=Only a few days
TTITLE1=I see my baby
TTITLE2=Train
TTITLE3=What I'm bound to do
TTITLE4=Boogie of love and insanity
TTITLE5=Song
TTITLE6=Hallelujah I love her so
TTITLE7=Sunny boy
TTITLE8=Dust my broom
EXTD=
EXTT0=
EXTT1=
EXTT2=
EXTT3=
EXTT4=
EXTT5=
EXTT6=
EXTT7=
EXTT8=
PLAYORDER=
